<?xml version="1.0" standalone="no"?><!DOCTYPE svg PUBLIC "-//W3C//DTD SVG 1.1//EN" "http://www.w3.org/Graphics/SVG/1.1/DTD/svg11.dtd"><svg t="1578132296660" class="icon" viewBox="0 0 1024 1024" version="1.1" xmlns="http://www.w3.org/2000/svg" p-id="3204" xmlns:xlink="http://www.w3.org/1999/xlink" width="200" height="200"><defs><style type="text/css"></style></defs><path d="M867.388235 173.176471l-102.4-108.42353c-24.094118-30.117647-60.235294-30.117647-84.329411 0l-54.211765 60.235294-457.788235 499.952941c-6.023529 6.023529-6.023529 12.047059-6.02353 18.070589l-36.141176 192.752941c-6.023529 24.094118 12.047059 42.164706 36.141176 36.141176l180.705882-36.141176c6.023529 0 12.047059-6.023529 18.070589-12.047059l427.670588-469.835294 84.329412-90.352941c18.070588-30.117647 18.070588-66.258824-6.02353-90.352941z m-548.141176 608.37647l-126.494118 24.094118 24.094118-132.517647 42.164706-48.188236 102.4 114.447059-42.164706 42.164706z m84.329412-96.37647l-102.4-114.447059 343.341176-373.458824 102.4 108.42353-343.341176 379.482353z m385.505882-415.62353l-108.423529-114.447059 42.164705-48.188235 108.42353 114.447059-42.164706 48.188235zM30.117647 926.117647h963.764706v60.235294h-963.764706z" p-id="3205"></path></svg>